<svg width="143" height="36" viewBox="0 0 143 36" fill="none" xmlns="http://www.w3.org/2000/svg">
<g id="Dropbox_logo_2017 1">
<g id="logo">
<g id="Block4">
<path d="M51.7705 17.5781C53.5556 18.3214 54.5757 19.6473 54.5757 21.6763C54.5757 24.4688 52.6728 26.4375 47.8079 26.4375H39V9.5625H47.8471C52.5551 9.5625 54.046 11.5513 54.046 13.8817C54.046 15.6696 53.1829 16.6741 51.7705 17.317V17.5781ZM47.5529 12.6964H42.9037V16.433H47.5529C49.338 16.433 50.2992 15.8103 50.2992 14.5848C50.2992 13.3594 49.338 12.6964 47.5529 12.6964ZM47.7491 23.3036C49.5734 23.3036 50.6131 22.4196 50.6131 21.0737C50.6131 19.7076 49.5734 18.9643 47.7491 18.9643H42.9037V23.3036H47.7491Z" fill="black"/>
<path d="M56.0573 26.4375V9.5625H59.9611V23.0826H69.4556V26.4375H56.0573Z" fill="black"/>
<path d="M78.9672 27C73.5922 27 69.9239 23.3036 69.9239 18C69.9239 12.6964 73.5922 9 78.9672 9C84.3618 9 88.0301 12.6964 88.0301 18C88.0301 23.3036 84.3618 27 78.9672 27ZM78.9672 23.5246C81.9097 23.5246 84.146 21.3147 84.146 18C84.146 14.6853 81.9097 12.4754 78.9672 12.4754C76.0443 12.4754 73.7884 14.6853 73.7884 18C73.7884 21.3147 76.0443 23.5246 78.9672 23.5246Z" fill="black"/>
<path d="M98.2578 27C92.922 27 89.2341 23.3036 89.2341 18C89.2341 12.6964 92.922 9 98.2578 9C101.867 9 105.575 10.6473 106.379 15.6094H102.632C101.926 13.4397 100.298 12.4754 98.2578 12.4754C95.3349 12.4754 93.0986 14.7455 93.0986 18C93.0986 21.2344 95.3349 23.5246 98.2578 23.5246C100.298 23.5246 101.926 22.5603 102.632 20.3705H106.379C105.575 25.3527 101.906 27 98.2578 27Z" fill="black"/>
<path d="M124.259 26.4375H120.179L114.784 19.4866H114.51L111.665 22.5V26.4375H107.781V9.5625H111.665V17.6585H111.959L119.453 9.5625H123.886L117.021 17.0558L124.259 26.4375Z" fill="black"/>
<path d="M137.705 19.9085H140V23.0022H137.705V26.4375H133.782V23.0022H125.091V19.9085L133.115 9.5625H137.705V19.9085ZM128.76 19.9085H133.782V13.3795L128.76 19.9085Z" fill="black"/>
</g>
<g id="cube">
<path d="M17.3295 17.8909L2 8.94545L17.3295 0L33.0909 8.94545L17.3295 17.8909Z" fill="#FEA621"/>
<path d="M17.3295 36L2 27.0545V8.94545L17.3295 17.8909V36Z" fill="#4E1F03"/>
<path d="M17.3295 36V17.8909L33.0909 8.94545V26.8364L17.3295 36Z" fill="#FF8001"/>
</g>
</g>
</g>
</svg>
