<svg width="241" height="240" viewBox="0 0 241 240" fill="none" xmlns="http://www.w3.org/2000/svg">
<g id="Group 1707477957">
<g id="Vector" filter="url(#filter0_d_126_238)">
<path d="M132.549 138H107.511C103.363 138 100 134.642 100 130.5V105.5C100 101.358 103.363 98 107.511 98H132.549C136.698 98 140.06 101.358 140.06 105.5V130.5C140.06 134.642 136.698 138 132.549 138Z" fill="#0061FF" fill-opacity="0.1" shape-rendering="crispEdges"/>
</g>
<path id="Vector_2" d="M127.315 112.794H120.089L118.651 111.088C118.603 111.03 118.531 110.998 118.455 111H112.625C111.734 111.007 111.016 111.729 111.016 112.618V123.11C111.017 124.002 111.741 124.725 112.634 124.726H127.315C128.209 124.725 128.932 124.002 128.933 123.11V114.41C128.932 113.518 128.209 112.795 127.315 112.794Z" fill="#FF8001"/>
<rect id="Rectangle 3" x="114.021" y="119.91" width="6.00904" height="2" rx="1" fill="white"/>
</g>
<defs>
<filter id="filter0_d_126_238" x="0" y="0" width="240.06" height="240" filterUnits="userSpaceOnUse" color-interpolation-filters="sRGB">
<feFlood flood-opacity="0" result="BackgroundImageFix"/>
<feColorMatrix in="SourceAlpha" type="matrix" values="0 0 0 0 0 0 0 0 0 0 0 0 0 0 0 0 0 0 127 0" result="hardAlpha"/>
<feOffset dy="2"/>
<feGaussianBlur stdDeviation="50"/>
<feComposite in2="hardAlpha" operator="out"/>
<feColorMatrix type="matrix" values="0 0 0 0 0 0 0 0 0 0 0 0 0 0 0 0 0 0 0.1 0"/>
<feBlend mode="normal" in2="BackgroundImageFix" result="effect1_dropShadow_126_238"/>
<feBlend mode="normal" in="SourceGraphic" in2="effect1_dropShadow_126_238" result="shape"/>
</filter>
</defs>
</svg>
