<svg width="20" height="16" viewBox="0 0 20 16" fill="none" xmlns="http://www.w3.org/2000/svg">
<g id="Group 2743">
<g id="Group 2739">
<g id="Group 2733">
<g id="Group 2715">
<g id="Group 2708">
<g id="Group 2709">
<g id="Group">
<g id="Group_2">
<path id="Vector" d="M13.0196 3.10746H7.24706L6.09882 1.74276C6.0602 1.69633 6.00231 1.67029 5.94196 1.67217H1.28471C0.573647 1.67735 0 2.25523 0 2.96629V11.36C0.000862745 12.0735 0.579059 12.6517 1.29255 12.6526H13.0196C13.7331 12.6517 14.3113 12.0735 14.3122 11.36V4.40001C14.3113 3.68652 13.7331 3.10833 13.0196 3.10746Z" fill="#757897"/>
</g>
</g>
<g id="Group_3">
<g id="Group_4">
<path id="Vector_2" d="M14.7153 1.43539H8.94118L7.79295 0.0706837C7.75432 0.0242523 7.69644 -0.00178689 7.63608 9.54656e-05H2.9804C2.33522 0.00115429 1.78965 0.477782 1.70197 1.11696H5.94824C6.17091 1.11641 6.38232 1.21468 6.52549 1.38519L7.50589 2.55068H13.0196C14.0394 2.55241 14.8657 3.37872 14.8675 4.39853V10.9679C15.514 10.8873 15.9995 10.338 16 9.68637V2.72637C15.9983 2.01653 15.4251 1.44057 14.7153 1.43539Z" fill="#757897"/>
</g>
</g>
</g>
</g>
</g>
<rect id="Rectangle 2" x="2.40002" y="8.8" width="4.8" height="1.6" rx="0.8" fill="white"/>
</g>
<circle id="Ellipse 189" cx="14.4" cy="9.6" r="5.6" fill="white"/>
<path id="Vector_3" d="M13.4745 8.89687C13.6422 8.89687 13.7822 8.84796 13.8955 8.77203C13.8014 8.86478 13.6964 8.98795 13.6079 9.15065C13.4825 9.38116 13.4041 9.66474 13.4041 10.0143C13.4041 10.1825 13.4183 10.4399 13.58 10.6487C13.3928 10.8301 13.2778 11.0844 13.2778 11.3601C13.2778 11.8781 13.6933 12.3466 14.2579 12.3466C14.8142 12.3466 15.2444 11.8868 15.2444 11.3601C15.2444 11.0878 15.1319 10.8399 14.9512 10.6607C15.0928 10.4967 15.1244 10.3075 15.1244 10.1786C15.1244 9.99883 15.131 9.96001 15.1403 9.93496C15.1403 9.93482 15.1404 9.93467 15.1404 9.93449C15.1429 9.92753 15.159 9.88224 15.2857 9.78306C15.3783 9.71101 15.5949 9.54011 15.7893 9.29236C15.9826 9.0461 16.1859 8.68351 16.1859 8.23258C16.1859 7.2601 15.3099 6.69007 14.3401 6.69007C13.3045 6.69007 12.5954 7.33436 12.5954 8.03672C12.5954 8.31823 12.7216 8.54879 12.907 8.69839C13.0788 8.83692 13.2877 8.89687 13.4745 8.89687ZM14.0522 8.63301C14.0873 8.5928 14.1144 8.55496 14.1327 8.52859C14.1487 8.50563 14.1575 8.49253 14.1644 8.48224C14.1723 8.47056 14.1777 8.46248 14.1884 8.44769C14.1985 8.43379 14.2046 8.42684 14.2076 8.42377C14.2165 8.42025 14.2488 8.41035 14.3211 8.41035C14.3233 8.41035 14.3256 8.41036 14.3277 8.41039C14.2938 8.44324 14.2515 8.47816 14.1964 8.52095C14.1848 8.53 14.1715 8.54023 14.1571 8.55127C14.1251 8.57579 14.0879 8.60435 14.0522 8.63301ZM14.3913 8.33108C14.3915 8.33103 14.3913 8.33225 14.3901 8.33487C14.3905 8.33243 14.3911 8.33113 14.3913 8.33108ZM14.2098 8.42169C14.2098 8.42174 14.2093 8.42217 14.2085 8.42278L14.2098 8.42169ZM10.1 9.6C10.1 7.22296 12.0231 5.3 14.4 5.3C16.777 5.3 18.7 7.22317 18.7 9.6C18.7 11.977 16.7768 13.9 14.4 13.9C12.0229 13.9 10.1 11.9768 10.1 9.6Z" fill="#757897" stroke="#757897"/>
</g>
</g>
</svg>
